<?xml version="1.0" encoding="UTF-8"?>
<svg id="new" xmlns="http://www.w3.org/2000/svg" viewBox="0 0 540 216">
  <defs>
    <style>
      .cls-1, .cls-2 {
        fill: #fff;
      }

      .cls-3 {
        letter-spacing: -.11em;
      }

      .cls-4 {
        letter-spacing: -.02em;
      }

      .cls-2 {
        font-family: ArialMT, Arial;
        font-size: 47.79px;
      }

      .cls-5 {
        letter-spacing: 0em;
      }
    </style>
  </defs>
  <g>
    <path class="cls-1" d="m63.53,95.34c-2.66,0-10.44-.13-11.81-.3l-.09,2.36c2.2.16,3.91,1.15,6.3,1.56.28,3.56.47,16.08.47,21.18v6.53c0,12.81-.27,24.56-.59,25.69l-.62,2.42-.3,1.17-.3,1.17,1.2-.09,1.2-.09s.54-.04.48-.04c0,0,15.72-.07,15.71-.07,37.82,0,51.24-19.81,51.24-36.77,0-9.13-5.87-16.85-16.11-21.18-5.64-2.41-15.64-3.86-26.77-3.86-3.39,0-8.37.11-12.76.2-3.17.07-5.91.12-7.26.12Zm40.89,48.72c-6.43,4.58-15.31,7.1-25,7.1-1.6,0-5.81-.3-9.15-1.2-.32-4.4-.56-18.76-.56-22.55v-3.22c0-3.39.31-19.21.55-23.34,1.63-.21,3.7-.33,5.58-.33,14.33,0,24.37,2.09,30.68,6.39,7.27,4.94,8.24,11.8,8.24,17.86,0,7.82-3.57,14.49-10.34,19.3Z"/>
    <path class="cls-1" d="m247.9,148.42c-6.43-6.11-9.17-12.47-9.17-21.26,0-7.89,3.32-15.55,9.35-21.58,7.45-7.45,18.02-11.56,29.77-11.56,8.38,0,17.4.84,26.5,6.99,7.49,5.02,12.15,13.42,12.15,21.93,0,20.31-16.84,35.05-40.03,35.05-12.44,0-21.79-3.13-28.56-9.57Zm56.66-20.76c0-7.01-2.79-13.66-7.84-18.71-5.47-5.47-12.93-8.49-20.99-8.49-12.05,0-26.11,6.06-26.11,23.15,0,6.71,2.99,13.54,8.22,18.77,5.81,5.81,13.57,9.01,21.84,9.01s14.13-2.21,18.49-6.56c4.13-4.12,6.4-10.22,6.4-17.17Z"/>
    <path class="cls-1" d="m43.16,98.46c3.3-.33,4.48-.91,6.32-1.07l.09-2.36c-1.56.17-8.42.33-13.1.33-3.77,0-11.28-.16-13.03-.33l.53,2.33c1.74.17,3.96.77,5.8,1.1.26,4.46.35,19.06.35,22.19v13.74c0,8.22-1.22,28.21-1.57,31.57l-.11,1.01,14.76-4.37.34-.31-.11-.5-.11-.49c-.2-.87-.42-8.26-.42-26.24v-13.99c0-13.34.15-20.7.27-22.6Z"/>
    <path class="cls-1" d="m234.62,98.54c2.66-.33,3.92-1.1,5.75-1.26l.55-2.27c-1.65.16-7.21.33-11.8.33-3.58,0-11.47-.16-13.03-.33l.46,2.27c2.66.17,3.74.83,5.3,1.16.35,3.44.45,15.07.45,20.29v3.32c-8.08-.07-31-.04-37.75,0v-3.32c.01-6.26.25-16.85.56-20.29,1.47-.33,2.62-.99,5.2-1.16l.46-2.27c-1.47.16-7.12.33-11.71.33-3.49,0-10.06-.16-11.62-.33l.46,2.27c3.12.25,4.21.83,5.86,1.16l-.03.03c.26,4.38.38,18.93.38,22.08v7.77s.02,5.88.02,5.88c.04,8.76.24,19.93-.05,23.2l-.04.28,11.27-3.39-.03-.29-.06-.45c-.37-3.04-.68-15.06-.68-23.29l-.05-3.87c3.01-.05,32.98-1.29,37.8-1.24v5.14c0,8.69,0,19.51-.52,22.15l-.21,1.03-.2,1.04h14.13l-.24-1.05-.24-1.06c-.54-2.37-.78-14.79-.78-26.06v-5.78c0-3.76.08-18.08.37-22Z"/>
    <path class="cls-1" d="m162.9,160.95l11.32-3.4-.65-1.09c-.03-.06-2.18-4.11-4.65-10.16-1.07-2.62-3-7.68-4.86-12.58-2.23-5.87-4.35-11.42-4.87-12.48-.71-1.41-13.33-35.29-13.45-35.63l-.19-.52-.21.51c-.32.76-1.8,4.6-4.04,10.41-7.98,20.71-24.21,62.8-28.45,71.43l8.99-4.49c1.72-7.05,7.51-23.48,10.02-30.61.69-1.97,1.15-3.26,1.28-3.67.06-.19.15-.42.26-.71.09-.26.51-1.69.65-2.08l15.4-.81c.62,1.56,6.96,17.58,5.58,13.71l7.88,22.15Zm-27.6-38.78c2.18-5.95,5.39-14.16,6.72-16.84l6.24,16.84h-12.97Z"/>
  </g>
  <text class="cls-2" transform="translate(41.84 202.78)"><tspan x="0" y="0">State</tspan><tspan class="cls-4" x="111.58" y="0"> </tspan><tspan class="cls-3" x="123.99" y="0">T</tspan><tspan class="cls-5" x="147.89" y="0">ax Commission</tspan></text>
  <g id="crop_box" data-name="crop box">
    <path class="cls-1" d="m182.91,77.26c-.49.7-.19,1.29.67,1.3l4.78.09c.9-.02,1.7-.6,2.02-1.44l5.73-18.04c.27-.81.08-.91-.41-.2l-12.79,18.29Z"/>
    <path class="cls-1" d="m113.84,78.34c-.6.62-.39,1.11.47,1.11l9.86-.38c.96-.11,1.82-.65,2.33-1.47l17.23-29.31c.42-.75.3-.83-.31-.22l-29.57,30.26Z"/>
    <path class="cls-1" d="m140.59,30.98c.69-.58,1.67-.66,2.45-.21l5.78,3.71c.78.43,1.75.36,2.45-.2l16.05-14.5c.63-.57.81-.42.4.32l-31.35,57.24c-.41.77,0,1.34.81,1.33,0,0,16.59-.28,26.09-.28h1.21c.97-.05,1.9-.44,2.61-1.11l37.93-40.25c.59-.62.91-.44.77.38l-8.88,39.96c-.19.67.19,1.37.85,1.57.12.02.24.02.36,0l67,4.85c.85.09,1.04-.32.42-.91l-55.59-52.94c-.65-.58-1.62-.6-2.3-.06l-5.26,4.44c-.72.54-1.7.6-2.48.13l-30.66-20.9c-.77-.48-1.76-.44-2.49.1l-16.35,12.99c-.74.53-1.73.58-2.52.13l-3.49-2.22c-.79-.45-1.78-.39-2.51.16l-68.49,56.66c-.65.54-.5.92.34.83l10.51-.97c.99-.14,1.92-.54,2.7-1.18l53.63-49.08Z"/>
  </g>
</svg>